<mxfile host="app.diagrams.net" modified="2022-12-20T13:34:16.369Z" agent="5.0 (Macintosh; Intel Mac OS X 10_15_7) AppleWebKit/537.36 (KHTML, like Gecko) Chrome/108.0.0.0 Safari/537.36" version="20.7.4" etag="uRigxttamD7vomr-L8JY" type="github">
  <diagram id="LzPSjrBE9QoCUfWx3sxA" name="第 1 页">
    <mxGraphModel dx="1303" dy="664" grid="1" gridSize="10" guides="1" tooltips="1" connect="1" arrows="1" fold="1" page="1" pageScale="1" pageWidth="827" pageHeight="1169" math="0" shadow="0">
      <root>
        <mxCell id="0" />
        <mxCell id="1" parent="0" />
        <mxCell id="XcR_hyQz9Lz4EqXfj8F2-1" value="Whsiper Encoder" style="rounded=0;whiteSpace=wrap;html=1;" vertex="1" parent="1">
          <mxGeometry x="140" y="330" width="120" height="60" as="geometry" />
        </mxCell>
        <mxCell id="XcR_hyQz9Lz4EqXfj8F2-2" value="Mbart decoder" style="rounded=0;whiteSpace=wrap;html=1;" vertex="1" parent="1">
          <mxGeometry x="330" y="240" width="130" height="150" as="geometry" />
        </mxCell>
        <mxCell id="XcR_hyQz9Lz4EqXfj8F2-3" value="" style="endArrow=classic;html=1;rounded=0;exitX=0.5;exitY=0;exitDx=0;exitDy=0;entryX=0;entryY=0.25;entryDx=0;entryDy=0;" edge="1" parent="1" source="XcR_hyQz9Lz4EqXfj8F2-1" target="XcR_hyQz9Lz4EqXfj8F2-2">
          <mxGeometry width="50" height="50" relative="1" as="geometry">
            <mxPoint x="230" y="310" as="sourcePoint" />
            <mxPoint x="280" y="260" as="targetPoint" />
            <Array as="points">
              <mxPoint x="200" y="280" />
            </Array>
          </mxGeometry>
        </mxCell>
        <mxCell id="XcR_hyQz9Lz4EqXfj8F2-4" value="&amp;lt;language emb&amp;gt;" style="text;strokeColor=none;align=center;fillColor=none;html=1;verticalAlign=middle;whiteSpace=wrap;rounded=0;" vertex="1" parent="1">
          <mxGeometry x="70" y="430" width="130" height="20" as="geometry" />
        </mxCell>
        <mxCell id="XcR_hyQz9Lz4EqXfj8F2-5" value="&amp;lt;mel&amp;gt;" style="text;strokeColor=none;align=center;fillColor=none;html=1;verticalAlign=middle;whiteSpace=wrap;rounded=0;" vertex="1" parent="1">
          <mxGeometry x="135" y="430" width="130" height="20" as="geometry" />
        </mxCell>
        <mxCell id="XcR_hyQz9Lz4EqXfj8F2-6" value="&amp;lt;mel&amp;gt;" style="text;strokeColor=none;align=center;fillColor=none;html=1;verticalAlign=middle;whiteSpace=wrap;rounded=0;" vertex="1" parent="1">
          <mxGeometry x="170" y="430" width="130" height="20" as="geometry" />
        </mxCell>
        <mxCell id="XcR_hyQz9Lz4EqXfj8F2-7" value="...&amp;lt;mel&amp;gt;" style="text;strokeColor=none;align=center;fillColor=none;html=1;verticalAlign=middle;whiteSpace=wrap;rounded=0;" vertex="1" parent="1">
          <mxGeometry x="210" y="430" width="130" height="20" as="geometry" />
        </mxCell>
        <mxCell id="XcR_hyQz9Lz4EqXfj8F2-8" value="" style="endArrow=classic;html=1;rounded=0;entryX=0.5;entryY=1;entryDx=0;entryDy=0;" edge="1" parent="1" target="XcR_hyQz9Lz4EqXfj8F2-1">
          <mxGeometry width="50" height="50" relative="1" as="geometry">
            <mxPoint x="200" y="430" as="sourcePoint" />
            <mxPoint x="560" y="340" as="targetPoint" />
          </mxGeometry>
        </mxCell>
        <mxCell id="XcR_hyQz9Lz4EqXfj8F2-12" value="&amp;lt;en_XX&amp;gt;" style="text;strokeColor=none;align=center;fillColor=none;html=1;verticalAlign=middle;whiteSpace=wrap;rounded=0;" vertex="1" parent="1">
          <mxGeometry x="265" y="450" width="130" height="20" as="geometry" />
        </mxCell>
        <mxCell id="XcR_hyQz9Lz4EqXfj8F2-13" value="&amp;lt;text&amp;gt;" style="text;strokeColor=none;align=center;fillColor=none;html=1;verticalAlign=middle;whiteSpace=wrap;rounded=0;" vertex="1" parent="1">
          <mxGeometry x="315" y="450" width="130" height="20" as="geometry" />
        </mxCell>
        <mxCell id="XcR_hyQz9Lz4EqXfj8F2-14" value="&amp;lt;text&amp;gt;" style="text;strokeColor=none;align=center;fillColor=none;html=1;verticalAlign=middle;whiteSpace=wrap;rounded=0;" vertex="1" parent="1">
          <mxGeometry x="355" y="450" width="130" height="20" as="geometry" />
        </mxCell>
        <mxCell id="XcR_hyQz9Lz4EqXfj8F2-15" value="...&amp;lt;text&amp;gt;" style="text;strokeColor=none;align=center;fillColor=none;html=1;verticalAlign=middle;whiteSpace=wrap;rounded=0;" vertex="1" parent="1">
          <mxGeometry x="395" y="450" width="130" height="20" as="geometry" />
        </mxCell>
        <mxCell id="XcR_hyQz9Lz4EqXfj8F2-16" value="&amp;lt;eos&amp;gt;" style="text;strokeColor=none;align=center;fillColor=none;html=1;verticalAlign=middle;whiteSpace=wrap;rounded=0;" vertex="1" parent="1">
          <mxGeometry x="435" y="450" width="130" height="20" as="geometry" />
        </mxCell>
        <mxCell id="XcR_hyQz9Lz4EqXfj8F2-17" value="" style="endArrow=classic;html=1;rounded=0;entryX=0.5;entryY=1;entryDx=0;entryDy=0;" edge="1" parent="1" target="XcR_hyQz9Lz4EqXfj8F2-2">
          <mxGeometry width="50" height="50" relative="1" as="geometry">
            <mxPoint x="395" y="440" as="sourcePoint" />
            <mxPoint x="560" y="340" as="targetPoint" />
          </mxGeometry>
        </mxCell>
        <mxCell id="XcR_hyQz9Lz4EqXfj8F2-18" value="" style="endArrow=classic;html=1;rounded=0;exitX=0.5;exitY=0;exitDx=0;exitDy=0;" edge="1" parent="1" source="XcR_hyQz9Lz4EqXfj8F2-2">
          <mxGeometry width="50" height="50" relative="1" as="geometry">
            <mxPoint x="510" y="390" as="sourcePoint" />
            <mxPoint x="395" y="200" as="targetPoint" />
          </mxGeometry>
        </mxCell>
        <mxCell id="XcR_hyQz9Lz4EqXfj8F2-20" value="&amp;lt;text&amp;gt;" style="text;strokeColor=none;align=center;fillColor=none;html=1;verticalAlign=middle;whiteSpace=wrap;rounded=0;" vertex="1" parent="1">
          <mxGeometry x="270" y="180" width="130" height="20" as="geometry" />
        </mxCell>
        <mxCell id="XcR_hyQz9Lz4EqXfj8F2-21" value="&amp;lt;text&amp;gt;" style="text;strokeColor=none;align=center;fillColor=none;html=1;verticalAlign=middle;whiteSpace=wrap;rounded=0;" vertex="1" parent="1">
          <mxGeometry x="310" y="180" width="130" height="20" as="geometry" />
        </mxCell>
        <mxCell id="XcR_hyQz9Lz4EqXfj8F2-22" value="...&amp;lt;text&amp;gt;" style="text;strokeColor=none;align=center;fillColor=none;html=1;verticalAlign=middle;whiteSpace=wrap;rounded=0;" vertex="1" parent="1">
          <mxGeometry x="350" y="180" width="130" height="20" as="geometry" />
        </mxCell>
        <mxCell id="XcR_hyQz9Lz4EqXfj8F2-23" value="&amp;lt;eos&amp;gt;" style="text;strokeColor=none;align=center;fillColor=none;html=1;verticalAlign=middle;whiteSpace=wrap;rounded=0;" vertex="1" parent="1">
          <mxGeometry x="390" y="180" width="130" height="20" as="geometry" />
        </mxCell>
      </root>
    </mxGraphModel>
  </diagram>
</mxfile>
